HIERARCHY
ROOT hip
{
  OFFSET 0 0 0
  CHANNELS 6 Xposition Yposition Zposition Zrotation Yrotation Xrotation
  JOINT abdomen
  {
    OFFSET 0 20.6881 -0.73152
    CHANNELS 3 Zrotation Xrotation Yrotation
    JOINT chest
    {
      OFFSET 0 11.7043 -0.48768
      CHANNELS 3 Zrotation Xrotation Yrotation
      JOINT neck
      {
        OFFSET 0 22.1894 -2.19456
        CHANNELS 3 Zrotation Xrotation Yrotation
        JOINT head
        {
          OFFSET -0.24384 7.07133 1.2192
          CHANNELS 3 Zrotation Xrotation Yrotation
          JOINT leftEye
          {
            OFFSET 4.14528 8.04674 8.04672
            CHANNELS 3 Zrotation Xrotation Yrotation
            End Site
            {
              OFFSET 1 0 0
            }
          }
          JOINT rightEye
          {
            OFFSET -3.6576 8.04674 8.04672
            CHANNELS 3 Zrotation Xrotation Yrotation
            End Site
            {
              OFFSET 1 0 0
            }
          }
        }
      }
      JOINT rCollar
      {
        OFFSET -2.68224 19.2634 -4.8768
        CHANNELS 3 Zrotation Xrotation Yrotation
        JOINT rShldr
        {
          OFFSET -8.77824 -1.95073 1.46304
          CHANNELS 3 Zrotation Xrotation Yrotation
          JOINT rForeArm
          {
            OFFSET -28.1742 -1.7115 0.48768
            CHANNELS 3 Zrotation Xrotation Yrotation
            JOINT rHand
            {
              OFFSET -22.5879 0.773209 7.07136
              CHANNELS 3 Zrotation Xrotation Yrotation
              JOINT rThumb1
              {
                OFFSET -1.2192 -0.487915 3.41376
                CHANNELS 3 Zrotation Xrotation Yrotation
                JOINT rThumb2
                {
                  OFFSET -3.37035 -0.52449 3.41376
                  CHANNELS 3 Zrotation Xrotation Yrotation
                  End Site
                  {
                    OFFSET -1.78271 -1.18214 1.43049
                  }
                }
              }
              JOINT rIndex1
              {
                OFFSET -7.75947 0.938293 5.60832
                CHANNELS 3 Zrotation Xrotation Yrotation
                JOINT rIndex2
                {
                  OFFSET -2.54057 -0.884171 1.56538
                  CHANNELS 3 Zrotation Xrotation Yrotation
                  End Site
                  {
                    OFFSET -1.62519 -0.234802 1.16502
                  }
                }
              }
              JOINT rMid1
              {
                OFFSET -8.24714 1.18213 3.41376
                CHANNELS 3 Zrotation Xrotation Yrotation
                JOINT rMid2
                {
                  OFFSET -3.10165 -0.590103 1.0647
                  CHANNELS 3 Zrotation Xrotation Yrotation
                  End Site
                  {
                    OFFSET -2.48547 -0.328903 0.83742
                  }
                }
              }
              JOINT rRing1
              {
                OFFSET -8.82822 0.546677 1.51678
                CHANNELS 3 Zrotation Xrotation Yrotation
                JOINT rRing2
                {
                  OFFSET -2.60934 -0.819778 -0.0198488
                  CHANNELS 3 Zrotation Xrotation Yrotation
                  End Site
                  {
                    OFFSET -2.33842 -0.294052 0.168128
                  }
                }
              }
              JOINT rPinky1
              {
                OFFSET -8.27202 -0.0477905 -0.4584
                CHANNELS 3 Zrotation Xrotation Yrotation
                JOINT rPinky2
                {
                  OFFSET -1.82734 -0.647385 -0.700984
                  CHANNELS 3 Zrotation Xrotation Yrotation
                  End Site
                  {
                    OFFSET -1.69225 -0.51767 -0.607171
                  }
                }
              }
            }
          }
        }
      }
      JOINT lCollar
      {
        OFFSET 2.68224 19.2634 -4.8768
        CHANNELS 3 Zrotation Xrotation Yrotation
        JOINT lShldr
        {
          OFFSET 8.77824 -1.95073 1.46304
          CHANNELS 3 Zrotation Xrotation Yrotation
          JOINT lForeArm
          {
            OFFSET 28.1742 -1.7115 0.48768
            CHANNELS 3 Zrotation Xrotation Yrotation
            JOINT lHand
            {
              OFFSET 22.5879 0.773209 7.07136
              CHANNELS 3 Zrotation Xrotation Yrotation
              JOINT lThumb1
              {
                OFFSET 1.2192 -0.487915 3.41376
                CHANNELS 3 Zrotation Xrotation Yrotation
                JOINT lThumb2
                {
                  OFFSET 3.37035 -0.52449 3.41376
                  CHANNELS 3 Zrotation Xrotation Yrotation
                  End Site
                  {
                    OFFSET 1.78271 -1.18214 1.43049
                  }
                }
              }
              JOINT lIndex1
              {
                OFFSET 7.75947 0.938293 5.60832
                CHANNELS 3 Zrotation Xrotation Yrotation
                JOINT lIndex2
                {
                  OFFSET 2.54057 -0.884171 1.56538
                  CHANNELS 3 Zrotation Xrotation Yrotation
                  End Site
                  {
                    OFFSET 1.62519 -0.234802 1.16502
                  }
                }
              }
              JOINT lMid1
              {
                OFFSET 8.24714 1.18213 3.41376
                CHANNELS 3 Zrotation Xrotation Yrotation
                JOINT lMid2
                {
                  OFFSET 3.10165 -0.590103 1.0647
                  CHANNELS 3 Zrotation Xrotation Yrotation
                  End Site
                  {
                    OFFSET 2.48547 -0.328903 0.83742
                  }
                }
              }
              JOINT lRing1
              {
                OFFSET 8.82822 0.546677 1.51678
                CHANNELS 3 Zrotation Xrotation Yrotation
                JOINT lRing2
                {
                  OFFSET 2.60934 -0.819778 -0.0198488
                  CHANNELS 3 Zrotation Xrotation Yrotation
                  End Site
                  {
                    OFFSET 2.33842 -0.294052 0.168128
                  }
                }
              }
              JOINT lPinky1
              {
                OFFSET 8.27202 -0.0477905 -0.4584
                CHANNELS 3 Zrotation Xrotation Yrotation
                JOINT lPinky2
                {
                  OFFSET 1.82734 -0.647385 -0.700984
                  CHANNELS 3 Zrotation Xrotation Yrotation
                  End Site
                  {
                    OFFSET 1.69225 -0.51767 -0.607171
                  }
                }
              }
            }
          }
        }
      }
    }
  }
  JOINT rButtock
  {
    OFFSET -8.77824 4.35084 1.2192
    CHANNELS 3 Zrotation Xrotation Yrotation
    JOINT rThigh
    {
      OFFSET 0 -1.70687 -2.19456
      CHANNELS 3 Zrotation Xrotation Yrotation
      JOINT rShin
      {
        OFFSET 0 -36.8199 0.73152
        CHANNELS 3 Zrotation Xrotation Yrotation
        JOINT rFoot
        {
          OFFSET 0.73152 -45.1104 -5.12064
          CHANNELS 3 Zrotation Xrotation Yrotation
          End Site
          {
            OFFSET -1.1221 -3.69964 12.103
          }
        }
      }
    }
  }
  JOINT lButtock
  {
    OFFSET 8.77824 4.35084 1.2192
    CHANNELS 3 Zrotation Xrotation Yrotation
    JOINT lThigh
    {
      OFFSET 0 -1.70687 -2.19456
      CHANNELS 3 Zrotation Xrotation Yrotation
      JOINT lShin
      {
        OFFSET 0 -36.8199 0.73152
        CHANNELS 3 Zrotation Xrotation Yrotation
        JOINT lFoot
        {
          OFFSET -0.73152 -45.1104 -5.12064
          CHANNELS 3 Zrotation Xrotation Yrotation
          End Site
          {
            OFFSET 1.1221 -3.69964 12.103
          }
        }
      }
    }
  }
}
MOTION
Frames:	8
Frame Time:	0.03333
-72.58059999999999 62.8788 7.177600000000001 166.225713 57.44013 172.835691 -14.294542 9.673967 -50.747918 9.788068 -1.942163 48.586689 -13.011329 26.681982 -92.295163 37.423706 11.848763 67.275859 0.001271 0.0 0.003709 0.000537 -0.0 -0.001923 -134.490682 50.912561 138.492154 81.637981 -32.164177 95.116126 -31.22956 -9.146942 18.955725 5.938627 -7.012955 3.449606 -173.626898 -11.297897 89.899203 -132.559271 12.419755 65.870171 -161.365793 -35.340671 122.70523 -172.734122 -39.546713 116.346908 -130.123241 46.720477 119.39649 -153.07792 21.552427 137.963594 -145.117029 2.600338 -179.944395 -140.411587 -58.798167 -162.3174 -74.927246 -51.711659 -73.406327 -6.77995 -21.589937 -9.797627 -3.567452 -30.633587 5.950734 -72.65709 14.196332 25.70813 -3.911683 8.228888 -30.327579 8.229558 37.462487 -3.009356 4.53414 4.410259 -0.866687 -56.692855 -71.515756 7.043294 7.311736 10.84994 -4.581024 175.619395 -30.436902 -107.682631 146.476493 27.549547 -133.663844 -11.010502 -23.059137 1.203985 145.104021 -1.274214 178.727541 -12.181254 49.058844 3.272877 -15.339488 53.516383 -12.064807 -1.469556 -0.300704 0.558639 -0.003347 4e-05 -0.001526 -51.188777 -59.57209 51.945414 64.587766 -4.589676 -79.238262 126.314055 -28.783736 -9.877592 -6.1e-05 -0.00082 -0.0 2.988421 7.727859 140.122268 27.57463 -32.521345 -28.139775 -150.396408 28.351869 39.689294
-72.5185 62.89130000000001 7.2202 166.393944 57.512041 173.147236 -13.838629 7.209355 -110.209331 4.65872 6.180176 107.33699 8.530578 25.548768 107.906734 -32.574734 20.818456 -125.793138 -0.001026 -0.0 0.001935 -0.000894 -0.0 0.001179 -156.153881 -7.980946 162.763246 -53.131403 19.156926 12.186514 153.540616 48.186248 -123.849835 -22.518148 60.76807 11.455978 6.867588 -6.856056 -0.650158 -146.790478 -58.438322 125.743782 1.852699 -3.068849 -1.011853 -42.564329 44.795594 32.101084 -84.234707 61.061186 75.873882 -82.62577 64.175918 74.818881 -145.122573 1.255856 -179.524675 10.933514 10.839829 -7.701685 -1.718538 -4.293137 -1.595019 -16.268175 -34.126383 -17.332492 158.778113 -59.457087 -173.287875 -105.816741 40.402 124.004715 -1.886629 13.676588 -30.374434 7.265313 35.123206 -2.723164 -179.419599 -18.014595 -89.176055 -156.103283 -42.819932 -104.982955 -8.329045 -14.565449 3.929315 48.190734 46.848263 -37.571816 164.594755 -19.148103 -144.722612 150.121984 27.766194 -135.690754 145.094821 -1.816263 178.55695 -11.93489 25.518352 6.088559 -33.579286 83.941726 -4.888887 1.199679 -6.424683 3.147235 -179.720083 75.749521 -0.219391 156.689342 5.702047 85.328784 74.702611 5.568691 47.353612 -133.905472 -18.320508 139.401619 0.035983 6.1e-05 0.026101 3.728256 7.394718 176.946527 15.497217 -40.594535 67.935458 4.937747 34.709513 157.51201
-72.4495 62.8884 7.2394 166.433156 57.619738 173.331999 -13.77813 7.712174 -94.420665 6.794792 4.564847 91.497419 -11.747734 29.375255 -108.363853 36.616718 20.909031 80.319689 0.000329 0.0 0.001005 0.000329 0.0 0.001005 -157.446073 -18.63591 164.823902 138.924753 -19.553567 178.288837 -16.735248 -24.87084 24.408598 -0.552849 14.903711 1.962643 31.270025 -29.118844 3.54191 -16.292508 8.636701 -5.11437 -8.392737 12.275414 5.324924 -163.145923 -13.869927 110.140458 -147.422271 25.895431 134.422259 -169.707246 -24.477719 143.948549 -145.116653 -0.091877 -179.098902 11.376045 16.464587 -7.07741 -135.547074 -12.439269 -132.925997 -8.272391 -22.183582 -11.260426 159.221828 -48.479192 -170.513129 151.560507 -49.962899 108.877667 19.189317 47.755329 43.333399 -142.467522 -52.703193 -126.705243 -3.437272 -3.418309 0.427661 128.058282 -21.078045 -114.726212 158.82105 -30.908752 -122.637522 6.898469 32.133433 -0.390366 -31.760288 -69.05582 -7.037717 -7.090147 -12.343516 1.081479 145.035087 -4.219363 177.798526 152.522994 -22.033838 175.92442 60.734431 -51.303379 59.347472 150.609332 25.628959 145.791019 -0.001888 -0.000793 -0.003207 -47.178733 -60.14704 -65.186406 -54.500402 51.29755 -9.874792 1.639881 -34.856709 95.077242 -0.000266 -1.9e-05 0.000259 4.791344 9.182955 -57.282528 -40.278261 11.398267 -63.255973 79.727416 8.933393 154.068009
-72.3835 62.879 7.230200000000001 166.297005 57.726012 173.300998 -18.63454 8.640341 68.12365 -4.307714 -11.091486 -70.704802 6.782483 30.217317 135.935954 -24.815391 35.089896 -152.416165 0.001281 -0.0 -0.000962 0.001281 -0.0 -0.000962 -159.178787 -52.231816 171.369126 -26.068961 23.499103 -27.078068 -121.22141 -21.700082 178.395653 32.722572 -51.78196 23.493479 6.566291 -6.555306 -0.638002 -44.010921 29.804524 36.631827 -54.371703 41.716866 43.580657 4.285946 3.354406 -2.497909 31.216086 -68.649907 6.612125 17.685331 -41.700179 -0.051707 -145.120479 0.217674 -179.197867 -157.013591 26.041844 177.804765 -143.992977 8.425436 -140.768458 157.235848 83.03469 -116.206945 -0.886845 -5.690958 1.219153 94.89489 -42.71544 173.954279 175.073711 33.948107 153.043101 7.526467 35.227715 -2.696088 5.197036 5.040811 -1.020558 -35.541207 -51.504025 14.357971 -20.069218 -35.89021 5.975948 -2.435782 17.835494 -2.454258 28.401499 46.775487 -22.776532 166.425158 -14.997547 -144.055285 0.001685 -0.302684 0.094518 156.533588 -38.197159 -176.402498 105.101401 -44.474861 103.249744 169.421607 71.722848 144.475994 179.630885 75.748835 0.287901 159.435098 5.519146 -80.454029 -77.740507 2.431328 -80.800584 162.074328 21.809418 -172.508851 179.993577 75.749064 0.005813 -136.357385 83.441325 -90.56569 -24.844854 20.343511 82.795238 146.763119 -7.290649 -11.094353
-72.31830000000001 62.8594 7.2001 165.90069 57.778594 172.991891 -14.441886 6.875212 -108.386433 4.845093 6.004872 105.581723 -9.585186 17.150955 -31.29664 21.824107 -19.375442 12.54599 -0.002309 -0.0 0.000767 -0.002138 -0.0 5.6e-05 -144.720051 36.04912 149.260334 -178.690589 24.623394 120.84296 154.726736 -60.899694 83.861508 164.054993 -22.016655 144.181605 3.14168 -3.124767 -0.398847 -127.950046 -21.068408 114.590608 -82.347313 42.529766 68.746667 -132.85736 33.118273 100.726429 2.431946 -7.333435 -1.235747 -163.865599 -6.504604 143.524348 -0.128479 -5.56682 -1.755503 3.263728 46.309205 9.341196 -117.083939 -36.776898 -115.034628 -73.623496 -53.498249 -74.179671 153.02569 10.136453 -158.639019 -112.698885 -41.951932 -157.691527 18.358479 -25.125807 -14.691665 -1.288319 8.132674 -2.086147 162.728994 -0.414086 -89.33037 -120.363084 -55.411632 -83.560253 -15.892546 -28.558478 5.793394 155.826137 -10.0374 -111.242814 -1.868647 -5.592593 0.97032 26.580386 50.26613 -21.893982 145.112224 -0.383048 179.008526 -11.874208 27.055137 5.918786 20.235773 -33.469383 19.405187 10.817303 -27.847599 12.814761 -179.998606 75.750323 -0.000811 159.360989 4.919803 -98.968359 -75.934965 -19.787716 -37.666477 -123.46673 54.256975 -159.216643 -179.998606 75.750323 -0.000811 -136.63402 83.527766 -97.304484 -40.459463 16.414029 -99.447444 -58.133475 9.008421 -156.75102
-72.2639 62.8409 7.1868 165.392451 57.716527 172.588989 -14.75132 7.449225 -91.882114 7.034528 4.267383 89.075487 -10.949656 18.624682 -41.753252 26.790664 -15.013738 22.953778 -0.001571 -0.0 0.004793 0.003384 -0.0 -0.001548 -2.81557 14.122191 3.520906 -108.338336 -10.834703 170.738942 -169.891362 11.601599 -146.767132 -5.504533 30.54958 2.32614 -139.837313 19.608748 82.037255 2.840373 -38.105156 22.245067 -172.058005 -50.912091 120.507408 -9.210314 35.930405 3.867932 -3.35196 9.209323 2.035813 8.578574 -16.351411 -1.431032 -145.112731 -0.393363 -179.004639 -138.227371 -61.100855 -160.321323 -135.544811 -12.444578 -132.921616 41.004632 78.043364 -4.940173 -1.115821 -7.29621 1.548377 98.241259 -8.818898 176.622754 179.523985 1.727193 153.19922 9.444794 39.937001 -3.372862 3.737627 3.644537 -0.689687 98.937251 11.592115 -90.788332 9.467801 13.648191 -6.076817 1.307456 14.991109 -3.081606 -5.256484 -16.299411 2.348044 164.751134 -9.137054 -143.744798 144.768656 -9.930749 175.968558 149.312789 -36.239083 172.806486 -17.046377 59.730268 -12.72006 141.161317 -8.025696 137.240701 0.013911 0.000717 0.009405 -51.303061 -60.072913 28.579454 70.824419 11.167516 12.156233 -146.632751 23.037495 83.242368 179.967594 75.748142 0.024411 -144.157409 82.779222 -159.910143 -33.62497 -30.127861 -38.976944 82.581229 37.131572 158.472127
-72.19630000000001 62.8031 7.1757 165.110302 57.604921 172.359894 -15.227584 8.427736 -66.051486 9.196623 0.5386 63.446645 8.124531 28.077546 120.36311 -29.905386 27.400438 -137.672162 -0.004245 -0.0 0.002044 -0.004245 -0.0 0.002044 -156.47721 -10.390019 163.244069 -54.098318 33.912495 10.903263 13.331521 -52.429551 -62.764371 160.35171 -30.26225 141.537195 44.932842 -38.087453 9.562782 -138.506387 -4.195326 117.116503 0.639414 -1.046928 -0.357947 -156.265349 -6.29542 109.964229 -157.283034 3.356135 141.434525 -53.89572 61.52329 47.328295 0.000838 0.359555 0.112006 3.054538 45.413927 9.053592 -36.784512 -44.902684 -35.665253 -147.517023 14.931994 -143.978237 15.446978 44.964911 -17.363945 55.704051 30.164279 -116.672725 -58.250327 55.395878 103.865228 -173.256904 3.706285 -148.313248 -16.195094 -16.050388 0.211099 -3.311331 -15.682805 14.994206 36.077294 35.646652 -27.45446 38.759954 43.115342 -24.793444 53.253977 58.213375 -46.114165 164.397913 -8.793848 -143.592741 145.11501 -0.538553 178.95994 -12.146244 47.460675 3.495476 152.73179 39.437165 147.96266 121.12857 -36.022038 118.612518 -0.005831 0.000411 -0.00287 -50.501625 -62.213377 178.964961 -56.202338 -50.626149 65.656339 140.277694 7.708641 -51.849377 -0.00152 -0.000376 -0.001721 4.372135 9.166441 -87.804061 -43.515402 -2.874918 -103.013875 -21.600914 27.445794 -128.078074
-72.1344 62.755300000000005 7.1813 165.010833 57.419223 172.255823 -15.318232 8.350522 -67.15742 9.087617 0.693462 64.410597 7.194833 19.684222 71.097868 -31.36546 -0.595953 -95.164083 -0.001149 -0.0 0.000694 -0.001149 -0.0 0.000694 4.114845 -55.578937 -11.126342 -115.905278 -21.245527 -133.391726 -175.98138 -15.564079 -143.977907 -7.933037 36.702917 2.906609 -3.560133 3.475152 0.651307 9.833952 -12.131615 -5.097174 -56.567762 42.118874 45.546252 -145.470514 17.666788 107.431003 -1.198926 3.426607 0.688972 -170.302993 -26.366434 144.300338 -145.107633 -1.039721 -178.800918 5.916875 -32.092994 -14.432807 -138.980693 -4.974643 -136.162481 -132.027574 -21.863459 -129.376884 124.094615 58.77336 -127.799503 -74.50549 -26.251429 -98.412481 -3.66988 -35.19017 -27.796963 7.62394 36.662467 -2.946585 0.32288 0.318656 -0.050669 4.022242 4.766628 -3.58328 161.54274 -35.639902 -122.699456 70.890931 57.563183 -55.70769 150.342973 20.255621 -136.692776 -42.177145 -68.978666 -16.775633 145.111307 -0.749893 178.892983 153.179058 -19.507447 176.36662 13.573739 -25.810115 12.919401 -17.638119 50.510967 -9.106772 -179.997947 75.749313 -0.001216 159.060738 4.658406 -94.916616 -76.531964 -16.586042 -36.708242 -14.023992 27.676709 141.883993 -179.973142 75.748519 -0.022709 -154.675285 83.187084 138.33029 24.886857 -34.317729 86.385769 -89.698304 36.186275 -167.394126
